<svg height="4398" width="720" xmlns="http://www.w3.org/2000/svg">
<rect height="4398" fill="#555" width="720"></rect>
<text fill="#7f7" font-family="Courier New" font-size="12" xml:space="preserve">
<tspan x="10" y="26">26 megabytes installed</tspan>
<tspan x="10" y="42"></tspan>
<tspan x="10" y="58">node_modules</tspan>
<tspan x="10" y="74">└─┬ gulp-cssnext@1.0.1 </tspan>
<tspan x="10" y="90">  ├─┬ cssnext@1.8.4 </tspan>
<tspan x="10" y="106">  │ ├─┬ autoprefixer-core@5.2.1 </tspan>
<tspan x="10" y="122">  │ │ ├── browserslist@0.4.0 </tspan>
<tspan x="10" y="138">  │ │ ├── caniuse-db@1.0.30000657 </tspan>
<tspan x="10" y="154">  │ │ └── num2fraction@1.2.2 </tspan>
<tspan x="10" y="170">  │ ├─┬ caniuse-api@1.6.1 </tspan>
<tspan x="10" y="186">  │ │ ├─┬ browserslist@1.7.7 </tspan>
<tspan x="10" y="202">  │ │ │ └── electron-to-chromium@1.3.7 </tspan>
<tspan x="10" y="218">  │ │ ├── lodash.memoize@4.1.2 </tspan>
<tspan x="10" y="234">  │ │ └── lodash.uniq@4.5.0 </tspan>
<tspan x="10" y="250">  │ ├─┬ chalk@1.1.3 </tspan>
<tspan x="10" y="266">  │ │ ├── ansi-styles@2.2.1 </tspan>
<tspan x="10" y="282">  │ │ ├── escape-string-regexp@1.0.5 </tspan>
<tspan x="10" y="298">  │ │ ├─┬ has-ansi@2.0.0 </tspan>
<tspan x="10" y="314">  │ │ │ └── ansi-regex@2.1.1 </tspan>
<tspan x="10" y="330">  │ │ ├── strip-ansi@3.0.1 </tspan>
<tspan x="10" y="346">  │ │ └── supports-color@2.0.0 </tspan>
<tspan x="10" y="362">  │ ├─┬ chokidar@1.6.1 </tspan>
<tspan x="10" y="378">  │ │ ├─┬ anymatch@1.3.0 </tspan>
<tspan x="10" y="394">  │ │ │ ├── arrify@1.0.1 </tspan>
<tspan x="10" y="410">  │ │ │ └─┬ micromatch@2.3.11 </tspan>
<tspan x="10" y="426">  │ │ │   ├─┬ arr-diff@2.0.0 </tspan>
<tspan x="10" y="442">  │ │ │   │ └── arr-flatten@1.0.3 </tspan>
<tspan x="10" y="458">  │ │ │   ├── array-unique@0.2.1 </tspan>
<tspan x="10" y="474">  │ │ │   ├─┬ braces@1.8.5 </tspan>
<tspan x="10" y="490">  │ │ │   │ ├─┬ expand-range@1.8.2 </tspan>
<tspan x="10" y="506">  │ │ │   │ │ └─┬ fill-range@2.2.3 </tspan>
<tspan x="10" y="522">  │ │ │   │ │   ├── is-number@2.1.0 </tspan>
<tspan x="10" y="538">  │ │ │   │ │   ├── isobject@2.1.0 </tspan>
<tspan x="10" y="554">  │ │ │   │ │   ├── randomatic@1.1.6 </tspan>
<tspan x="10" y="570">  │ │ │   │ │   └── repeat-string@1.6.1 </tspan>
<tspan x="10" y="586">  │ │ │   │ ├── preserve@0.2.0 </tspan>
<tspan x="10" y="602">  │ │ │   │ └── repeat-element@1.1.2 </tspan>
<tspan x="10" y="618">  │ │ │   ├─┬ expand-brackets@0.1.5 </tspan>
<tspan x="10" y="634">  │ │ │   │ └── is-posix-bracket@0.1.1 </tspan>
<tspan x="10" y="650">  │ │ │   ├── extglob@0.3.2 </tspan>
<tspan x="10" y="666">  │ │ │   ├── filename-regex@2.0.0 </tspan>
<tspan x="10" y="682">  │ │ │   ├─┬ kind-of@3.1.0 </tspan>
<tspan x="10" y="698">  │ │ │   │ └── is-buffer@1.1.5 </tspan>
<tspan x="10" y="714">  │ │ │   ├─┬ normalize-path@2.1.1 </tspan>
<tspan x="10" y="730">  │ │ │   │ └── remove-trailing-separator@1.0.1 </tspan>
<tspan x="10" y="746">  │ │ │   ├─┬ object.omit@2.0.1 </tspan>
<tspan x="10" y="762">  │ │ │   │ ├─┬ for-own@0.1.5 </tspan>
<tspan x="10" y="778">  │ │ │   │ │ └── for-in@1.0.2 </tspan>
<tspan x="10" y="794">  │ │ │   │ └── is-extendable@0.1.1 </tspan>
<tspan x="10" y="810">  │ │ │   ├─┬ parse-glob@3.0.4 </tspan>
<tspan x="10" y="826">  │ │ │   │ ├── glob-base@0.3.0 </tspan>
<tspan x="10" y="842">  │ │ │   │ └── is-dotfile@1.0.2 </tspan>
<tspan x="10" y="858">  │ │ │   └─┬ regex-cache@0.4.3 </tspan>
<tspan x="10" y="874">  │ │ │     ├── is-equal-shallow@0.1.3 </tspan>
<tspan x="10" y="890">  │ │ │     └── is-primitive@2.0.0 </tspan>
<tspan x="10" y="906">  │ │ ├── async-each@1.0.1 </tspan>
<tspan x="10" y="922">  │ │ ├── glob-parent@2.0.0 </tspan>
<tspan x="10" y="938">  │ │ ├── inherits@2.0.3 </tspan>
<tspan x="10" y="954">  │ │ ├─┬ is-binary-path@1.0.1 </tspan>
<tspan x="10" y="970">  │ │ │ └── binary-extensions@1.8.0 </tspan>
<tspan x="10" y="986">  │ │ ├─┬ is-glob@2.0.1 </tspan>
<tspan x="10" y="1002">  │ │ │ └── is-extglob@1.0.0 </tspan>
<tspan x="10" y="1018">  │ │ ├── path-is-absolute@1.0.1 </tspan>
<tspan x="10" y="1034">  │ │ └─┬ readdirp@2.1.0 </tspan>
<tspan x="10" y="1050">  │ │   ├── graceful-fs@4.1.11 </tspan>
<tspan x="10" y="1066">  │ │   ├─┬ minimatch@3.0.3 </tspan>
<tspan x="10" y="1082">  │ │   │ └─┬ brace-expansion@1.1.7 </tspan>
<tspan x="10" y="1098">  │ │   │   └── concat-map@0.0.1 </tspan>
<tspan x="10" y="1114">  │ │   └── set-immediate-shim@1.0.1 </tspan>
<tspan x="10" y="1130">  │ ├─┬ commander@2.9.0 </tspan>
<tspan x="10" y="1146">  │ │ └── graceful-readlink@1.0.1 </tspan>
<tspan x="10" y="1162">  │ ├─┬ cssnano@2.6.1 </tspan>
<tspan x="10" y="1178">  │ │ ├── balanced-match@0.2.1 </tspan>
<tspan x="10" y="1194">  │ │ ├── css-list@0.1.3 </tspan>
<tspan x="10" y="1210">  │ │ ├── decamelize@1.2.0 </tspan>
<tspan x="10" y="1226">  │ │ ├── defined@1.0.0 </tspan>
<tspan x="10" y="1242">  │ │ ├── indexes-of@1.0.1 </tspan>
<tspan x="10" y="1258">  │ │ ├─┬ postcss-colormin@1.2.7 </tspan>
<tspan x="10" y="1274">  │ │ │ └─┬ colormin@1.1.2 </tspan>
<tspan x="10" y="1290">  │ │ │   ├─┬ color@0.11.4 </tspan>
<tspan x="10" y="1306">  │ │ │   │ └── color-convert@1.9.0 </tspan>
<tspan x="10" y="1322">  │ │ │   ├── css-color-names@0.0.4 </tspan>
<tspan x="10" y="1338">  │ │ │   └─┬ has@1.0.1 </tspan>
<tspan x="10" y="1354">  │ │ │     └── function-bind@1.1.0 </tspan>
<tspan x="10" y="1370">  │ │ ├─┬ postcss-convert-values@1.3.1 </tspan>
<tspan x="10" y="1386">  │ │ │ └── postcss-value-parser@1.4.2 </tspan>
<tspan x="10" y="1402">  │ │ ├─┬ postcss-discard-comments@1.2.1 </tspan>
<tspan x="10" y="1418">  │ │ │ └── node-balanced@0.0.14 </tspan>
<tspan x="10" y="1434">  │ │ ├── postcss-discard-duplicates@1.2.1 </tspan>
<tspan x="10" y="1450">  │ │ ├── postcss-discard-empty@1.1.2 </tspan>
<tspan x="10" y="1466">  │ │ ├─┬ postcss-discard-unused@1.0.3 </tspan>
<tspan x="10" y="1482">  │ │ │ ├── flatten@0.0.1 </tspan>
<tspan x="10" y="1498">  │ │ │ └── uniqs@2.0.0 </tspan>
<tspan x="10" y="1514">  │ │ ├─┬ postcss-filter-plugins@1.0.1 </tspan>
<tspan x="10" y="1530">  │ │ │ └── uniqid@1.0.0 </tspan>
<tspan x="10" y="1546">  │ │ ├── postcss-font-family@1.2.1 </tspan>
<tspan x="10" y="1562">  │ │ ├── postcss-merge-idents@1.0.2 </tspan>
<tspan x="10" y="1578">  │ │ ├── postcss-merge-longhand@1.0.2 </tspan>
<tspan x="10" y="1594">  │ │ ├── postcss-merge-rules@1.3.6 </tspan>
<tspan x="10" y="1610">  │ │ ├── postcss-minify-font-weight@1.0.1 </tspan>
<tspan x="10" y="1626">  │ │ ├─┬ postcss-minify-selectors@1.5.0 </tspan>
<tspan x="10" y="1642">  │ │ │ ├── javascript-natural-sort@0.7.1 </tspan>
<tspan x="10" y="1658">  │ │ │ └── normalize-selector@0.2.0 </tspan>
<tspan x="10" y="1674">  │ │ ├─┬ postcss-normalize-url@2.1.3 </tspan>
<tspan x="10" y="1690">  │ │ │ ├── is-absolute-url@2.1.0 </tspan>
<tspan x="10" y="1706">  │ │ │ ├─┬ normalize-url@1.9.1 </tspan>
<tspan x="10" y="1722">  │ │ │ │ ├── object-assign@4.1.1 </tspan>
<tspan x="10" y="1738">  │ │ │ │ ├── prepend-http@1.0.4 </tspan>
<tspan x="10" y="1754">  │ │ │ │ ├─┬ query-string@4.3.4 </tspan>
<tspan x="10" y="1770">  │ │ │ │ │ ├── object-assign@4.1.1 </tspan>
<tspan x="10" y="1786">  │ │ │ │ │ └── strict-uri-encode@1.1.0 </tspan>
<tspan x="10" y="1802">  │ │ │ │ └─┬ sort-keys@1.1.2 </tspan>
<tspan x="10" y="1818">  │ │ │ │   └── is-plain-obj@1.1.0 </tspan>
<tspan x="10" y="1834">  │ │ │ └── object-assign@4.1.1 </tspan>
<tspan x="10" y="1850">  │ │ ├── postcss-ordered-values@1.1.1 </tspan>
<tspan x="10" y="1866">  │ │ ├── postcss-reduce-idents@1.0.3 </tspan>
<tspan x="10" y="1882">  │ │ ├─┬ postcss-single-charset@0.3.0 </tspan>
<tspan x="10" y="1898">  │ │ │ └─┬ fs-extra@0.14.0 </tspan>
<tspan x="10" y="1914">  │ │ │   ├── jsonfile@2.4.0 </tspan>
<tspan x="10" y="1930">  │ │ │   ├── ncp@1.0.1 </tspan>
<tspan x="10" y="1946">  │ │ │   └─┬ rimraf@2.6.1 </tspan>
<tspan x="10" y="1962">  │ │ │     └─┬ glob@7.1.1 </tspan>
<tspan x="10" y="1978">  │ │ │       └── fs.realpath@1.0.0 </tspan>
<tspan x="10" y="1994">  │ │ ├── postcss-unique-selectors@1.0.1 </tspan>
<tspan x="10" y="2010">  │ │ └── postcss-zindex@1.1.3 </tspan>
<tspan x="10" y="2026">  │ ├── exit@0.1.2 </tspan>
<tspan x="10" y="2042">  │ ├─┬ mkdirp@0.5.1 </tspan>
<tspan x="10" y="2058">  │ │ └── minimist@0.0.8 </tspan>
<tspan x="10" y="2074">  │ ├─┬ pixrem@1.3.1 </tspan>
<tspan x="10" y="2090">  │ │ ├── browserslist@0.5.0 </tspan>
<tspan x="10" y="2106">  │ │ └─┬ reduce-css-calc@1.3.0 </tspan>
<tspan x="10" y="2122">  │ │   ├── balanced-match@0.4.2 </tspan>
<tspan x="10" y="2138">  │ │   └── math-expression-evaluator@1.2.16 </tspan>
<tspan x="10" y="2154">  │ ├─┬ pleeease-filters@1.0.1 </tspan>
<tspan x="10" y="2170">  │ │ └── onecolor@2.4.2 </tspan>
<tspan x="10" y="2186">  │ ├─┬ postcss@4.1.16 </tspan>
<tspan x="10" y="2202">  │ │ ├── es6-promise@2.3.0 </tspan>
<tspan x="10" y="2218">  │ │ ├── js-base64@2.1.9 </tspan>
<tspan x="10" y="2234">  │ │ └─┬ source-map@0.4.4 </tspan>
<tspan x="10" y="2250">  │ │   └── amdefine@1.0.1 </tspan>
<tspan x="10" y="2266">  │ ├─┬ postcss-calc@4.1.0 </tspan>
<tspan x="10" y="2282">  │ │ └── postcss-message-helpers@2.0.0 </tspan>
<tspan x="10" y="2298">  │ ├─┬ postcss-color-function@1.3.2 </tspan>
<tspan x="10" y="2314">  │ │ ├── balanced-match@0.1.0 </tspan>
<tspan x="10" y="2330">  │ │ ├─┬ css-color-function@1.3.0 </tspan>
<tspan x="10" y="2346">  │ │ │ ├── balanced-match@0.1.0 </tspan>
<tspan x="10" y="2362">  │ │ │ ├─┬ color@0.11.4 </tspan>
<tspan x="10" y="2378">  │ │ │ │ └── color-convert@1.9.0 </tspan>
<tspan x="10" y="2394">  │ │ │ ├── debug@0.7.4 </tspan>
<tspan x="10" y="2410">  │ │ │ └── rgb@0.1.0 </tspan>
<tspan x="10" y="2426">  │ │ └── postcss-message-helpers@1.1.1 </tspan>
<tspan x="10" y="2442">  │ ├─┬ postcss-color-gray@2.0.0 </tspan>
<tspan x="10" y="2458">  │ │ ├─┬ color@0.7.3 </tspan>
<tspan x="10" y="2474">  │ │ │ ├── color-convert@0.5.3 </tspan>
<tspan x="10" y="2490">  │ │ │ └─┬ color-string@0.2.4 </tspan>
<tspan x="10" y="2506">  │ │ │   └── color-name@1.0.1 </tspan>
<tspan x="10" y="2522">  │ │ └── reduce-function-call@1.0.2 </tspan>
<tspan x="10" y="2538">  │ ├─┬ postcss-color-hex-alpha@1.3.0 </tspan>
<tspan x="10" y="2554">  │ │ └── color@0.10.1 </tspan>
<tspan x="10" y="2570">  │ ├── postcss-color-hwb@1.2.0 </tspan>
<tspan x="10" y="2586">  │ ├─┬ postcss-color-rebeccapurple@1.2.0 </tspan>
<tspan x="10" y="2602">  │ │ └── color@0.9.0 </tspan>
<tspan x="10" y="2618">  │ ├─┬ postcss-color-rgba-fallback@1.3.1 </tspan>
<tspan x="10" y="2634">  │ │ └─┬ color-string@0.3.0 </tspan>
<tspan x="10" y="2650">  │ │   └── color-name@1.1.2 </tspan>
<tspan x="10" y="2666">  │ ├── postcss-custom-media@4.1.0 </tspan>
<tspan x="10" y="2682">  │ ├─┬ postcss-custom-properties@4.2.0 </tspan>
<tspan x="10" y="2698">  │ │ └── balanced-match@0.1.0 </tspan>
<tspan x="10" y="2714">  │ ├─┬ postcss-custom-selectors@2.3.0 </tspan>
<tspan x="10" y="2730">  │ │ └── balanced-match@0.2.1 </tspan>
<tspan x="10" y="2746">  │ ├── postcss-font-variant@1.2.0 </tspan>
<tspan x="10" y="2762">  │ ├─┬ postcss-import@6.2.0 </tspan>
<tspan x="10" y="2778">  │ │ ├── clone@0.1.19 </tspan>
<tspan x="10" y="2794">  │ │ ├─┬ glob@5.0.15 </tspan>
<tspan x="10" y="2810">  │ │ │ ├─┬ inflight@1.0.6 </tspan>
<tspan x="10" y="2826">  │ │ │ │ └── wrappy@1.0.2 </tspan>
<tspan x="10" y="2842">  │ │ │ └── once@1.4.0 </tspan>
<tspan x="10" y="2858">  │ │ └─┬ resolve@1.3.3 </tspan>
<tspan x="10" y="2874">  │ │   └── path-parse@1.0.5 </tspan>
<tspan x="10" y="2890">  │ ├── postcss-media-minmax@1.2.0 </tspan>
<tspan x="10" y="2906">  │ ├── postcss-messages@0.2.2 </tspan>
<tspan x="10" y="2922">  │ ├─┬ postcss-pseudo-class-any-link@0.2.1 </tspan>
<tspan x="10" y="2938">  │ │ └─┬ postcss-selector-parser@1.3.3 </tspan>
<tspan x="10" y="2954">  │ │   ├── flatten@1.0.2 </tspan>
<tspan x="10" y="2970">  │ │   └── uniq@1.0.1 </tspan>
<tspan x="10" y="2986">  │ ├── postcss-pseudoelements@2.2.0 </tspan>
<tspan x="10" y="3002">  │ ├─┬ postcss-reporter@0.1.0 </tspan>
<tspan x="10" y="3018">  │ │ └─┬ lodash.difference@3.2.2 </tspan>
<tspan x="10" y="3034">  │ │   ├─┬ lodash._basedifference@3.0.3 </tspan>
<tspan x="10" y="3050">  │ │   │ ├── lodash._baseindexof@3.1.0 </tspan>
<tspan x="10" y="3066">  │ │   │ ├── lodash._cacheindexof@3.0.2 </tspan>
<tspan x="10" y="3082">  │ │   │ └── lodash._createcache@3.1.2 </tspan>
<tspan x="10" y="3098">  │ │   └── lodash._baseflatten@3.1.4 </tspan>
<tspan x="10" y="3114">  │ ├─┬ postcss-selector-matches@1.2.1 </tspan>
<tspan x="10" y="3130">  │ │ └── balanced-match@0.2.1 </tspan>
<tspan x="10" y="3146">  │ ├─┬ postcss-selector-not@1.2.1 </tspan>
<tspan x="10" y="3162">  │ │ └── balanced-match@0.2.1 </tspan>
<tspan x="10" y="3178">  │ ├─┬ postcss-url@4.0.1 </tspan>
<tspan x="10" y="3194">  │ │ ├─┬ directory-encoder@0.6.1 </tspan>
<tspan x="10" y="3210">  │ │ │ ├─┬ fs-extra@0.8.1 </tspan>
<tspan x="10" y="3226">  │ │ │ │ ├── jsonfile@1.1.1 </tspan>
<tspan x="10" y="3242">  │ │ │ │ ├── mkdirp@0.3.5 </tspan>
<tspan x="10" y="3258">  │ │ │ │ ├── ncp@0.4.2 </tspan>
<tspan x="10" y="3274">  │ │ │ │ └── rimraf@2.2.8 </tspan>
<tspan x="10" y="3290">  │ │ │ ├─┬ handlebars@1.1.2 </tspan>
<tspan x="10" y="3306">  │ │ │ │ ├─┬ optimist@0.3.7 </tspan>
<tspan x="10" y="3322">  │ │ │ │ │ └── wordwrap@0.0.3 </tspan>
<tspan x="10" y="3338">  │ │ │ │ └─┬ uglify-js@2.3.6 </tspan>
<tspan x="10" y="3354">  │ │ │ │   ├── async@0.2.10 </tspan>
<tspan x="10" y="3370">  │ │ │ │   └── source-map@0.1.43 </tspan>
<tspan x="10" y="3386">  │ │ │ ├─┬ img-stats@0.4.2 </tspan>
<tspan x="10" y="3402">  │ │ │ │ └── xmldom@0.1.16 </tspan>
<tspan x="10" y="3418">  │ │ │ └── lodash@2.4.0 </tspan>
<tspan x="10" y="3434">  │ │ └── mime@1.3.4 </tspan>
<tspan x="10" y="3450">  │ ├─┬ read-file-stdin@0.2.1 </tspan>
<tspan x="10" y="3466">  │ │ └── gather-stream@1.0.0 </tspan>
<tspan x="10" y="3482">  │ ├─┬ to-slug-case@0.1.2 </tspan>
<tspan x="10" y="3498">  │ │ └─┬ to-space-case@0.1.2 </tspan>
<tspan x="10" y="3514">  │ │   └── to-no-case@0.1.1 </tspan>
<tspan x="10" y="3530">  │ ├─┬ to-space-case@0.1.3 </tspan>
<tspan x="10" y="3546">  │ │ └── to-no-case@0.1.2 </tspan>
<tspan x="10" y="3562">  │ └── write-file-stdout@0.0.2 </tspan>
<tspan x="10" y="3578">  ├─┬ gulp-util@3.0.8 </tspan>
<tspan x="10" y="3594">  │ ├── array-differ@1.0.0 </tspan>
<tspan x="10" y="3610">  │ ├── array-uniq@1.0.3 </tspan>
<tspan x="10" y="3626">  │ ├── beeper@1.1.1 </tspan>
<tspan x="10" y="3642">  │ ├── dateformat@2.0.0 </tspan>
<tspan x="10" y="3658">  │ ├─┬ fancy-log@1.3.0 </tspan>
<tspan x="10" y="3674">  │ │ └── time-stamp@1.0.1 </tspan>
<tspan x="10" y="3690">  │ ├─┬ gulplog@1.0.0 </tspan>
<tspan x="10" y="3706">  │ │ └── glogg@1.0.0 </tspan>
<tspan x="10" y="3722">  │ ├─┬ has-gulplog@0.1.0 </tspan>
<tspan x="10" y="3738">  │ │ └── sparkles@1.0.0 </tspan>
<tspan x="10" y="3754">  │ ├── lodash._reescape@3.0.0 </tspan>
<tspan x="10" y="3770">  │ ├── lodash._reevaluate@3.0.0 </tspan>
<tspan x="10" y="3786">  │ ├── lodash._reinterpolate@3.0.0 </tspan>
<tspan x="10" y="3802">  │ ├─┬ lodash.template@3.6.2 </tspan>
<tspan x="10" y="3818">  │ │ ├── lodash._basecopy@3.0.1 </tspan>
<tspan x="10" y="3834">  │ │ ├── lodash._basetostring@3.0.1 </tspan>
<tspan x="10" y="3850">  │ │ ├── lodash._basevalues@3.0.0 </tspan>
<tspan x="10" y="3866">  │ │ ├── lodash._isiterateecall@3.0.9 </tspan>
<tspan x="10" y="3882">  │ │ ├─┬ lodash.escape@3.2.0 </tspan>
<tspan x="10" y="3898">  │ │ │ └── lodash._root@3.0.1 </tspan>
<tspan x="10" y="3914">  │ │ ├─┬ lodash.keys@3.1.2 </tspan>
<tspan x="10" y="3930">  │ │ │ ├── lodash._getnative@3.9.1 </tspan>
<tspan x="10" y="3946">  │ │ │ ├── lodash.isarguments@3.1.0 </tspan>
<tspan x="10" y="3962">  │ │ │ └── lodash.isarray@3.0.4 </tspan>
<tspan x="10" y="3978">  │ │ ├── lodash.restparam@3.6.1 </tspan>
<tspan x="10" y="3994">  │ │ └── lodash.templatesettings@3.1.1 </tspan>
<tspan x="10" y="4010">  │ ├── minimist@1.2.0 </tspan>
<tspan x="10" y="4026">  │ ├─┬ multipipe@0.1.2 </tspan>
<tspan x="10" y="4042">  │ │ └─┬ duplexer2@0.0.2 </tspan>
<tspan x="10" y="4058">  │ │   └─┬ readable-stream@1.1.14 </tspan>
<tspan x="10" y="4074">  │ │     ├── isarray@0.0.1 </tspan>
<tspan x="10" y="4090">  │ │     └── string_decoder@0.10.31 </tspan>
<tspan x="10" y="4106">  │ ├── object-assign@3.0.0 </tspan>
<tspan x="10" y="4122">  │ ├── replace-ext@0.0.1 </tspan>
<tspan x="10" y="4138">  │ ├─┬ through2@2.0.3 </tspan>
<tspan x="10" y="4154">  │ │ └─┬ readable-stream@2.2.9 </tspan>
<tspan x="10" y="4170">  │ │   ├── buffer-shims@1.0.0 </tspan>
<tspan x="10" y="4186">  │ │   ├── isarray@1.0.0 </tspan>
<tspan x="10" y="4202">  │ │   ├── process-nextick-args@1.0.7 </tspan>
<tspan x="10" y="4218">  │ │   ├── string_decoder@1.0.0 </tspan>
<tspan x="10" y="4234">  │ │   └── util-deprecate@1.0.2 </tspan>
<tspan x="10" y="4250">  │ └─┬ vinyl@0.5.3 </tspan>
<tspan x="10" y="4266">  │   ├── clone@1.0.2 </tspan>
<tspan x="10" y="4282">  │   └── clone-stats@0.0.1 </tspan>
<tspan x="10" y="4298">  └─┬ through2@0.6.5 </tspan>
<tspan x="10" y="4314">    ├─┬ readable-stream@1.0.34 </tspan>
<tspan x="10" y="4330">    │ ├── core-util-is@1.0.2 </tspan>
<tspan x="10" y="4346">    │ ├── isarray@0.0.1 </tspan>
<tspan x="10" y="4362">    │ └── string_decoder@0.10.31 </tspan>
<tspan x="10" y="4378">    └── xtend@4.0.1</tspan>
</text>
</svg>
